Song Beneath the Song Aired 3/31/2011

In a series first, the music that has been at the heart of the show and been beloved by fans comes to life for Grey's Anatomy: The Music Event. A cataclysmic event rattles the doctors of Seattle Grace to the core, as Callie, on the verge of an enormous life-changing moment with Arizona, envisions her hospital and friends as it has never-been-seen before. "Chasing Cars" (Snow Patrol), "How to Save a Life" (The Fray) and "The Story" (Brandi Carlile) are among the songs performed by the cast.

General
Complete name                    : Grey's Anatomy S07E18 HDTV_JHW.mp4
Format                           : MPEG-4
Format profile                   : Base Media / Version 2
Codec ID                         : mp42
File size                        : 342 MiB
Duration                         : 42mn 9s
Overall bit rate                 : 1 134 Kbps
Encoded date                     : UTC 2011-03-31 03:20:57
Tagged date                      : UTC 2011-03-31 03:20:57
Writing library                  : AVS 

Video
ID                               : 1
Format                           : AVC
Format/Info                      : Advanced Video Codec
Format profile                   : Main@L5.1
Format settings, CABAC           : Yes
Format settings, ReFrames        : 2 frames
Codec ID                         : avc1
Codec ID/Info                    : Advanced Video Coding
Duration                         : 42mn 9s
Bit rate mode                    : Variable
Bit rate                         : 999 Kbps
Width                            : 720 pixels
Height                           : 400 pixels
Display aspect ratio             : 16:9
Frame rate mode                  : Constant
Frame rate                       : 29.970 fps
Color space                      : YUV
Chroma subsampling               : 4:2:0
Bit depth                        : 8 bits
Scan type                        : Progressive
Bits/(Pixel*Frame)               : 0.116
Stream size                      : 301 MiB (88%)
Language                         : English
Encoded date                     : UTC 2011-03-31 03:20:57
Tagged date                      : UTC 2011-03-31 03:20:57

Audio
ID                               : 2
Format                           : AAC
Format/Info                      : Advanced Audio Codec
Format profile                   : LC
Codec ID                         : 40
Duration                         : 42mn 9s
Bit rate mode                    : Constant
Bit rate                         : 128 Kbps
Channel(s)                       : 2 channels
Channel positions                : Front: L R
Sampling rate                    : 48.0 KHz
Compression mode                 : Lossy
Stream size                      : 37.8 MiB (11%)
Language                         : English
Encoded date                     : UTC 2011-03-31 03:20:57
Tagged date                      : UTC 2011-03-31 03:20:57
 
http://img148.imageshack.us/img148/325/vlcsnap2011033123h23m24.png
 
http://img203.imageshack.us/img203/7201/vlcsnap2011033123h23m50.png
 
http://img21.imageshack.us/img21/1223/vlcsnap2011033123h24m38.png
 
http://img708.imageshack.us/img708/9859/vlcsnap2011033123h24m57.png
 
http://img35.imageshack.us/img35/594/vlcsnap2011033123h25m12.png